<svg xmlns="http://www.w3.org/2000/svg" width="1600" height="1000" viewBox="0 0 1600 1000" role="img" aria-label="Subtle cloud architecture background">
  <defs>
    <linearGradient id="sky" x1="0" y1="0" x2="1" y2="1">
      <stop offset="0" stop-color="#f8fbff"/>
      <stop offset="0.55" stop-color="#eef5fb"/>
      <stop offset="1" stop-color="#f7fafc"/>
    </linearGradient>
    <linearGradient id="line" x1="0" y1="0" x2="1" y2="0">
      <stop offset="0" stop-color="#0078d4" stop-opacity="0.12"/>
      <stop offset="0.48" stop-color="#34a853" stop-opacity="0.16"/>
      <stop offset="1" stop-color="#ff9900" stop-opacity="0.12"/>
    </linearGradient>
    <filter id="soft" x="-20%" y="-20%" width="140%" height="140%">
      <feGaussianBlur stdDeviation="18"/>
    </filter>
  </defs>
  <rect width="1600" height="1000" fill="url(#sky)"/>
  <g fill="none" stroke="#cbd6e2" stroke-opacity="0.34" stroke-width="1">
    <path d="M0 160H1600M0 320H1600M0 480H1600M0 640H1600M0 800H1600"/>
    <path d="M180 0V1000M360 0V1000M540 0V1000M720 0V1000M900 0V1000M1080 0V1000M1260 0V1000M1440 0V1000"/>
  </g>
  <g filter="url(#soft)" opacity="0.72">
    <circle cx="1320" cy="130" r="190" fill="#d9ecff"/>
    <circle cx="1180" cy="860" r="220" fill="#e8f7ee"/>
    <circle cx="220" cy="760" r="170" fill="#fff1d6"/>
  </g>
  <g opacity="0.74">
    <path d="M245 334C382 220 535 217 702 326S1038 482 1280 330" fill="none" stroke="url(#line)" stroke-width="6" stroke-linecap="round"/>
    <path d="M302 565C455 472 612 487 774 585S1068 688 1307 554" fill="none" stroke="url(#line)" stroke-width="5" stroke-linecap="round"/>
  </g>
  <g fill="#fff" stroke="#c9d6e4" stroke-width="2" opacity="0.9">
    <rect x="225" y="292" width="116" height="72" rx="18"/>
    <rect x="642" y="292" width="130" height="78" rx="18"/>
    <rect x="1222" y="292" width="128" height="76" rx="18"/>
    <rect x="300" y="526" width="124" height="76" rx="18"/>
    <rect x="735" y="548" width="130" height="78" rx="18"/>
    <rect x="1256" y="512" width="132" height="80" rx="18"/>
  </g>
  <g fill="#607089" opacity="0.72" font-family="Arial, sans-serif" font-size="20" font-weight="700">
    <text x="257" y="336">APP</text>
    <text x="683" y="338">DATA</text>
    <text x="1262" y="337">CLOUD</text>
    <text x="333" y="571">NET</text>
    <text x="771" y="594">AI</text>
    <text x="1296" y="559">OPS</text>
  </g>
</svg>
